<svg width="32" height="32" fill="none" xmlns="http://www.w3.org/2000/svg"><g clip-path="url('#clip0_45176_145')"><path d="M28.494 32h.112c.197-.008.392-.037.586-.082.773-.186 1.505-.67 2.02-1.269.517-.598.798-1.299.788-1.836-.01-.537-.206-.956-.95-1.306-7.516-3.538-12.484-9.823-16.719-15.534-.458 1.044-1.035 2-1.747 2.779-.085.095-.17.183-.26.272 4.03 6.218 8.384 12.164 14.472 16.415.574.399 1.142.563 1.698.561ZM8.666 15.398c.712-.029 1.374-.264 1.98-.668.663-3.999-.049-7.034-1.719-9.078-1.663-2.036-4.34-3.138-7.85-3.065A5.804 5.804 0 0 0 .07 4.77c-.14.618-.056.83.14 1.059.198.235.635.47 1.227.69 1.184.434 2.931.802 4.256 2.103v.007c1.198 1.176 1.416 3.058 1.74 4.542.162.735.338 1.39.55 1.764.211.375.324.478.683.463Zm3.439-2.102c.655-.882 1.184-1.984 1.55-3.175.88-2.888.69-6.203-.634-7.813C11.675.668 8.716-.265 5.96.066 4.67.221 3.452.617 2.45 1.301c3.143.213 5.73 1.404 7.441 3.491 1.699 2.08 2.488 4.991 2.213 8.504Z" fill="#131313"/></g><defs><clipPath id="clip0_45176_145"><path fill="#fff" transform="rotate(180 16 16)" d="M0 0h32v32H0z"/></clipPath></defs></svg>