<svg width="32" height="32" viewBox="0 0 32 32" fill="none" xmlns="http://www.w3.org/2000/svg">
<g clip-path="url(#clip0_45176_145)">
<path d="M28.4943 32H28.6056C28.8029 31.9919 28.9981 31.9632 29.1918 31.9177C29.9655 31.7324 30.6969 31.2481 31.2127 30.6491C31.7285 30.0508 32.0096 29.3503 31.9997 28.813C31.9899 28.2757 31.794 27.8568 31.0506 27.5069C23.5338 23.9686 18.5662 17.6843 14.3314 11.9733C13.8734 13.017 13.2957 13.9725 12.584 14.7516C12.4994 14.8472 12.4149 14.9354 12.3233 15.0236C16.3537 21.2417 20.7082 27.1879 26.7961 31.4392C27.3697 31.8376 27.9376 32.0015 28.4943 32ZM8.66632 15.3984C9.37799 15.369 10.0403 15.1338 10.6463 14.7296C11.3086 10.7311 10.597 7.69556 8.92703 5.65225C7.26413 3.61628 4.58658 2.51377 1.07759 2.58727C0.619583 3.19733 0.267274 3.92498 0.0699806 4.77024C-0.070943 5.38765 0.0136101 5.6008 0.210903 5.82865C0.408196 6.06385 0.84506 6.29905 1.43694 6.51955C2.6207 6.95321 4.36815 7.32071 5.69283 8.62167V8.62902C6.89068 9.80503 7.10911 11.6866 7.43324 13.1714C7.5953 13.9064 7.77146 14.5605 7.98284 14.9354C8.19423 15.3102 8.30697 15.4131 8.66632 15.3984ZM12.1049 13.2963C12.7602 12.4143 13.2886 11.3118 13.655 10.1211C14.5358 7.23251 14.3455 3.91763 13.0209 2.30797C11.675 0.66891 8.71565 -0.264546 5.96059 0.066206C4.67114 0.220557 3.45215 0.617459 2.45159 1.30101C5.59419 1.51417 8.18013 2.70487 9.89235 4.79229C11.5905 6.87236 12.3797 9.78298 12.1049 13.2963Z" fill="#131313"/>
</g>
<defs>
<clipPath id="clip0_45176_145">
<rect width="32" height="32" fill="white" transform="matrix(-1 0 0 -1 32 32)"/>
</clipPath>
</defs>
</svg>
